<svg xmlns="http://www.w3.org/2000/svg" viewBox="0 0 100 68.38"><g transform="matrix(.69 0 0 .69 15.5 15.5)"><path fill="#0A0A0A" d="M121.1 70.57L82.1-.92a3.243 3.243 0 0 0-2.63-1.69c-1.12-.08-2.2.42-2.86 1.33L58.55 23.38l-21.9-43.71a3.247 3.247 0 0 0-4.36-1.44c-.57.29-1.04.73-1.36 1.28l-52 90.99a3.253 3.253 0 0 0 0 3.25 3.229 3.229 0 0 0 2.83 1.62h136.48c1.15 0 2.21-.61 2.79-1.59.6-.98.62-2.21.07-3.21zm-133.75-1.69l46.21-80.85 40.43 80.85h-86.64zm93.91 0l-19.5-39L78.79 6.55l33.99 62.33H81.26z"/></g></svg>