<?xml version="1.0" standalone="no"?><!DOCTYPE svg PUBLIC "-//W3C//DTD SVG 1.1//EN" "http://www.w3.org/Graphics/SVG/1.1/DTD/svg11.dtd"><svg t="1627297424638" class="icon" viewBox="0 0 1024 1024" version="1.1" xmlns="http://www.w3.org/2000/svg" p-id="1278" xmlns:xlink="http://www.w3.org/1999/xlink" width="200" height="200"><defs><style type="text/css">@font-face { font-family: feedback-iconfont; src: url("//at.alicdn.com/t/font_1031158_1uhr8ri0pk5.eot?#iefix") format("embedded-opentype"), url("//at.alicdn.com/t/font_1031158_1uhr8ri0pk5.woff2") format("woff2"), url("//at.alicdn.com/t/font_1031158_1uhr8ri0pk5.woff") format("woff"), url("//at.alicdn.com/t/font_1031158_1uhr8ri0pk5.ttf") format("truetype"), url("//at.alicdn.com/t/font_1031158_1uhr8ri0pk5.svg#iconfont") format("svg"); }
</style></defs><path d="M1024 821.76c0-129.536-75.264-242.688-183.296-290.816 53.76-37.888 86.016-102.4 86.016-172.544 0-96.768-64.512-183.296-145.408-204.8h-5.632c-16.384 0-32.256 16.384-32.256 37.888 0 16.384 10.752 32.256 27.136 32.256h5.632c48.64 27.136 86.016 75.264 86.016 134.656 0 64.512-43.008 118.784-102.4 134.656-21.504 0-32.256 16.384-32.256 37.888s16.384 37.888 37.888 37.888c118.784 10.752 199.168 118.784 199.168 253.44 0 21.504 16.384 37.888 32.256 37.888 10.752-0.512 27.136-16.896 27.136-38.4m-388.096-285.696c59.392-43.008 102.4-118.784 102.4-204.8 0-134.656-102.4-247.808-226.304-247.808-129.536 0-231.936 113.152-231.936 247.808 0 86.016 37.888 161.792 102.4 204.8-123.904 53.76-215.552 188.416-215.552 345.088v27.136c0 21.504 16.384 32.256 32.256 32.256H819.2c16.384 0 32.256-16.384 32.256-32.256v-27.136c0-151.04-86.016-285.696-215.552-345.088" fill="#F0B90B" p-id="1279"></path><path d="M0 811.008c0-129.536 75.264-242.688 183.296-285.696C129.536 487.424 97.28 422.912 97.28 352.768 96.768 256 161.792 175.104 247.808 153.6h5.632c16.384 0 32.256 16.384 32.256 37.888 0 16.384-10.752 32.256-27.136 32.256h-5.632c-53.76 16.384-91.648 70.144-91.648 123.904 0 64.512 43.008 118.784 102.4 129.536 21.504 0 32.256 16.384 32.256 37.888s-16.384 37.888-37.888 37.888c-118.784 10.752-199.168 118.784-199.168 247.808 0 21.504-16.384 32.256-32.256 32.256-10.24 10.24-26.624-5.632-26.624-22.016" fill="#F0B90B" p-id="1280"></path></svg>